<?xml version="1.0" standalone="no"?>
<!DOCTYPE svg PUBLIC "-//W3C//DTD SVG 20010904//EN"
 "http://www.w3.org/TR/2001/REC-SVG-20010904/DTD/svg10.dtd">
<svg version="1.0" xmlns="http://www.w3.org/2000/svg"
 width="752.000000pt" height="422.000000pt" viewBox="0 0 752.000000 422.000000"
 preserveAspectRatio="xMidYMid meet">

<g transform="translate(0.000000,422.000000) scale(0.100000,-0.100000)"
fill="#000000" stroke="none">
<path d="M4955 3100 c-235 -37 -430 -187 -545 -419 -80 -160 -109 -290 -117
-512 -6 -182 3 -277 42 -424 101 -387 382 -625 739 -625 152 0 291 41 410 120
188 126 310 337 362 624 23 123 23 370 0 496 -80 454 -351 728 -736 745 -52 2
-122 0 -155 -5z m227 -291 c184 -39 305 -174 370 -413 20 -71 22 -106 22 -286
0 -179 -3 -215 -22 -285 -74 -271 -237 -415 -471 -415 -284 0 -457 190 -501
550 -45 370 69 703 279 809 92 48 215 63 323 40z"/>
<path d="M6727 3100 c-210 -36 -367 -143 -443 -305 -71 -150 -67 -358 10 -490
71 -120 188 -189 491 -290 336 -112 420 -165 446 -280 24 -108 -21 -224 -106
-272 -97 -56 -257 -76 -385 -49 -99 20 -239 92 -316 160 l-61 55 -99 -100 -99
-100 81 -77 c175 -167 386 -242 644 -229 151 8 237 28 338 78 201 99 303 290
288 539 -12 206 -103 332 -311 435 -49 24 -176 73 -281 109 -215 73 -283 103
-337 147 -52 43 -69 82 -69 154 0 154 113 239 317 238 152 -2 277 -47 384
-140 l44 -39 91 94 c50 52 92 100 94 107 4 15 -81 88 -160 139 -157 99 -382
146 -561 116z"/>
<path d="M130 3064 c-68 -30 -115 -95 -126 -177 -14 -101 53 -204 153 -233 58
-17 96 -13 154 17 78 39 114 111 107 215 -3 51 -10 71 -35 106 -58 80 -165
110 -253 72z"/>
<path d="M860 3058 c-55 -30 -105 -100 -114 -162 -22 -147 114 -280 254 -246
182 44 225 294 68 397 -58 39 -146 43 -208 11z"/>
<path d="M1603 3059 c-78 -38 -118 -114 -111 -214 5 -79 41 -137 108 -174 52
-29 138 -33 186 -8 96 50 144 164 113 268 -37 121 -182 185 -296 128z"/>
<path d="M2530 3013 c-1 -424 -2 -1762 -1 -1805 l1 -58 135 0 135 0 0 380 0
380 215 0 c122 0 215 -4 215 -9 0 -5 63 -139 141 -298 78 -158 159 -325 180
-370 l38 -83 161 0 c88 0 160 1 160 3 0 2 -85 178 -189 393 l-188 389 58 21
c174 63 295 205 335 395 21 100 14 269 -15 361 -62 193 -231 326 -454 357 -46
7 -252 11 -503 11 l-424 0 0 -67z m885 -214 c79 -15 125 -39 172 -93 100 -114
97 -331 -7 -434 -79 -80 -145 -92 -507 -92 l-273 0 0 315 0 315 278 0 c158 0
304 -5 337 -11z"/>
<path d="M118 2310 c-133 -72 -157 -246 -49 -351 99 -96 237 -83 316 30 25 36
30 54 33 114 3 61 0 79 -21 117 -13 25 -43 58 -66 75 -55 39 -156 46 -213 15z"/>
<path d="M861 2309 c-77 -39 -130 -139 -117 -222 21 -130 135 -212 256 -186
179 38 225 286 72 393 -58 41 -147 47 -211 15z"/>
<path d="M1599 2307 c-24 -13 -57 -43 -74 -66 -28 -39 -30 -50 -30 -126 0 -76
2 -87 30 -126 53 -75 131 -106 220 -87 90 19 165 115 165 212 0 78 -51 161
-121 196 -54 28 -133 27 -190 -3z"/>
<path d="M120 1561 c-131 -72 -159 -237 -58 -347 91 -98 244 -87 322 24 26 37
31 54 34 115 3 61 0 79 -21 117 -13 25 -43 58 -66 75 -55 38 -156 46 -211 16z"/>
<path d="M870 1564 c-79 -34 -124 -107 -124 -199 0 -90 40 -157 119 -197 76
-39 184 -20 241 44 81 89 78 235 -8 315 -54 51 -157 68 -228 37z"/>
<path d="M1599 1557 c-24 -13 -57 -43 -74 -66 -25 -36 -30 -54 -33 -114 -3
-61 0 -79 21 -117 28 -54 89 -99 146 -110 128 -23 251 82 251 215 0 161 -171
266 -311 192z"/>
</g>
</svg>
