<svg xmlns="http://www.w3.org/2000/svg" version="1.1" xmlns:xlink="http://www.w3.org/1999/xlink" xmlns:svgjs="http://svgjs.dev/svgjs" width="2000" height="1247" viewBox="0 0 2000 1247"><g transform="matrix(1,0,0,1,-1.2121212121212466,0.504858299595071)"><svg viewBox="0 0 396 247" data-background-color="#ffffff" preserveAspectRatio="xMidYMid meet" height="1247" width="2000" xmlns="http://www.w3.org/2000/svg" xmlns:xlink="http://www.w3.org/1999/xlink"><g id="tight-bounds" transform="matrix(1,0,0,1,0.2400000000000091,-0.09999999999999432)"><svg viewBox="0 0 395.52 247.2" height="247.2" width="395.52"><g><svg></svg></g><g><svg viewBox="0 0 395.52 247.2" height="247.2" width="395.52"><g transform="matrix(1,0,0,1,39.55199999999999,107.62333004926109)"><svg viewBox="0 0 316.416 31.953339901477833" height="31.953339901477833" width="316.416"><g><svg viewBox="0 0 316.416 31.953339901477833" height="31.953339901477833" width="316.416"><g><svg viewBox="0 0 316.416 31.953339901477833" height="31.953339901477833" width="316.416"><g><svg viewBox="0 0 316.416 31.953339901477833" height="31.953339901477833" width="316.416"><g id="textblocktransform"><svg viewBox="0 0 316.416 31.953339901477833" height="31.953339901477833" width="316.416" id="textblock"><g><svg viewBox="0 0 316.416 31.953339901477833" height="31.953339901477833" width="316.416"><g transform="matrix(1,0,0,1,0,0)"><svg width="316.416" viewBox="-2 -37.25 406.9599914550781 42" height="31.953339901477833" data-palette-color="#ffffff"><path d="M2 0L9.35-32.5 14.6-32.5 21.95 0 18.45 0 16.75-7.5 7.2-7.5 5.5 0 2 0ZM16.05-10.5L11.95-28.6 7.85-10.5 16.05-10.5ZM32.5-12.5L32.5 0 29 0 29-32.5 32.5-32.5 32.5-18.7 41.2-32.5 45.1-32.5 36.25-18.5 45.7 0 41.85 0 34.15-15.15 32.5-12.5ZM67.6-6.25L67.6-6.25Q67.6 0.75 59.15 0.75 50.7 0.75 50.7-6.25L50.7-6.25 50.7-10.5 54.2-10.5 54.2-6.05Q54.2-4.25 55.45-3.25 56.7-2.25 59.15-2.25 61.6-2.25 62.85-3.25 64.1-4.25 64.1-5.98 64.1-7.7 63.72-8.72 63.35-9.75 62.2-10.9L62.2-10.9 53.4-19.5Q51.85-21.05 51.27-22.53 50.7-24 50.7-26.25L50.7-26.25Q50.7-29.6 52.77-31.43 54.85-33.25 59.05-33.25L59.05-33.25Q67.1-33.25 67.1-26.25L67.1-26.25 67.1-22 63.6-22 63.6-26.45Q63.6-28.25 62.42-29.25 61.25-30.25 58.9-30.25 56.55-30.25 55.37-29.25 54.2-28.25 54.2-26.5 54.2-24.75 54.55-23.75 54.9-22.75 56.1-21.65L56.1-21.65 65.05-13.05Q66.5-11.45 67.05-9.98 67.6-8.5 67.6-6.25ZM80.09-15L80.09 0 76.59 0 76.59-32.5 80.09-32.5 80.09-18 89.94-18 89.94-32.5 93.44-32.5 93.44 0 89.94 0 89.94-15 80.09-15ZM118.94-26.25L118.94 0 117.44 0 116.14-3.2Q115.09-1.4 113.39-0.33 111.69 0.75 109.64 0.75L109.64 0.75Q102.44 0.75 102.44-6.25L102.44-6.25 102.44-11.25Q102.44-18.25 109.64-18.25L109.64-18.25 115.44-18.25 115.44-26.45Q115.44-28.25 114.29-29.25 113.14-30.25 110.89-30.25L110.89-30.25Q106.44-30.25 106.44-26.45L106.44-26.45 106.44-23.5 102.94-23.5 102.94-26.25Q102.94-29.6 104.92-31.43 106.89-33.25 110.89-33.25 114.89-33.25 116.92-31.43 118.94-29.6 118.94-26.25L118.94-26.25ZM115.44-7.1L115.44-15.25 109.64-15.25Q107.54-15.25 106.74-14.2 105.94-13.15 105.94-11.25L105.94-11.25 105.94-6.25Q105.94-4.35 106.74-3.3 107.54-2.25 109.64-2.25 111.74-2.25 113.54-3.88 115.34-5.5 115.44-7.1L115.44-7.1ZM127.69-5.75L127.69-32.5 138.69-32.5 138.69-29.5 131.19-29.5 131.19-5.55Q131.19-4.15 131.91-3.2 132.64-2.25 133.96-2.25 135.29-2.25 135.99-3.18 136.69-4.1 136.69-5.55L136.69-5.55 136.69-11.5 140.19-11.5 140.19-5.75Q140.19-2.6 138.51-0.93 136.84 0.75 133.99 0.75 131.14 0.75 129.41-0.93 127.69-2.6 127.69-5.75L127.69-5.75ZM174.58-6.25L174.58-6.25Q174.58 0.75 166.13 0.75 157.68 0.75 157.68-6.25L157.68-6.25 157.68-10.5 161.18-10.5 161.18-6.05Q161.18-4.25 162.43-3.25 163.68-2.25 166.13-2.25 168.58-2.25 169.83-3.25 171.08-4.25 171.08-5.98 171.08-7.7 170.71-8.72 170.33-9.75 169.18-10.9L169.18-10.9 160.38-19.5Q158.83-21.05 158.26-22.53 157.68-24 157.68-26.25L157.68-26.25Q157.68-29.6 159.76-31.43 161.83-33.25 166.03-33.25L166.03-33.25Q174.08-33.25 174.08-26.25L174.08-26.25 174.08-22 170.58-22 170.58-26.45Q170.58-28.25 169.41-29.25 168.23-30.25 165.88-30.25 163.53-30.25 162.36-29.25 161.18-28.25 161.18-26.5 161.18-24.75 161.53-23.75 161.88-22.75 163.08-21.65L163.08-21.65 172.03-13.05Q173.48-11.45 174.03-9.98 174.58-8.5 174.58-6.25ZM187.08-15L187.08 0 183.58 0 183.58-32.5 187.08-32.5 187.08-18 196.93-18 196.93-32.5 200.43-32.5 200.43 0 196.93 0 196.93-15 187.08-15ZM213.93-22.85L213.93 0 210.43 0 210.43-32.5 211.93-32.5 213.38-28.8Q214.98-33.25 218.48-33.25L218.48-33.25Q224.43-33.25 224.43-26.75L224.43-26.75 224.43-23.5 221.08-23.5 221.08-26.95Q221.08-30.25 218.33-30.25L218.33-30.25Q216.68-30.25 215.3-28.35 213.93-26.45 213.93-22.85L213.93-22.85ZM233.93-32.5L233.93 0 230.43 0 230.43-32.5 233.93-32.5ZM260.87-32.5L253.52 0 248.27 0 240.92-32.5 244.42-32.5 250.87-3.85 257.37-32.5 260.87-32.5ZM283.37-26.25L283.37 0 281.87 0 280.57-3.2Q279.52-1.4 277.82-0.33 276.12 0.75 274.07 0.75L274.07 0.75Q266.87 0.75 266.87-6.25L266.87-6.25 266.87-11.25Q266.87-18.25 274.07-18.25L274.07-18.25 279.87-18.25 279.87-26.45Q279.87-28.25 278.72-29.25 277.57-30.25 275.32-30.25L275.32-30.25Q270.87-30.25 270.87-26.45L270.87-26.45 270.87-23.5 267.37-23.5 267.37-26.25Q267.37-29.6 269.35-31.43 271.32-33.25 275.32-33.25 279.32-33.25 281.35-31.43 283.37-29.6 283.37-26.25L283.37-26.25ZM279.87-7.1L279.87-15.25 274.07-15.25Q271.97-15.25 271.17-14.2 270.37-13.15 270.37-11.25L270.37-11.25 270.37-6.25Q270.37-4.35 271.17-3.3 271.97-2.25 274.07-2.25 276.17-2.25 277.97-3.88 279.77-5.5 279.87-7.1L279.87-7.1ZM308.77-6.25L308.77-6.25Q308.77 0.75 300.32 0.75 291.87 0.75 291.87-6.25L291.87-6.25 291.87-10.5 295.37-10.5 295.37-6.05Q295.37-4.25 296.62-3.25 297.87-2.25 300.32-2.25 302.77-2.25 304.02-3.25 305.27-4.25 305.27-5.98 305.27-7.7 304.89-8.72 304.52-9.75 303.37-10.9L303.37-10.9 294.57-19.5Q293.02-21.05 292.44-22.53 291.87-24 291.87-26.25L291.87-26.25Q291.87-29.6 293.94-31.43 296.02-33.25 300.22-33.25L300.22-33.25Q308.27-33.25 308.27-26.25L308.27-26.25 308.27-22 304.77-22 304.77-26.45Q304.77-28.25 303.59-29.25 302.42-30.25 300.07-30.25 297.72-30.25 296.54-29.25 295.37-28.25 295.37-26.5 295.37-24.75 295.72-23.75 296.07-22.75 297.27-21.65L297.27-21.65 306.22-13.05Q307.67-11.45 308.22-9.98 308.77-8.5 308.77-6.25ZM317.02-5.75L317.02-32.5 328.02-32.5 328.02-29.5 320.52-29.5 320.52-5.55Q320.52-4.15 321.24-3.2 321.97-2.25 323.29-2.25 324.62-2.25 325.32-3.18 326.02-4.1 326.02-5.55L326.02-5.55 326.02-11.5 329.52-11.5 329.52-5.75Q329.52-2.6 327.84-0.93 326.17 0.75 323.32 0.75 320.47 0.75 318.74-0.93 317.02-2.6 317.02-5.75L317.02-5.75ZM352.01-26.25L352.01 0 350.51 0 349.21-3.2Q348.16-1.4 346.46-0.33 344.76 0.75 342.71 0.75L342.71 0.75Q335.51 0.75 335.51-6.25L335.51-6.25 335.51-11.25Q335.51-18.25 342.71-18.25L342.71-18.25 348.51-18.25 348.51-26.45Q348.51-28.25 347.36-29.25 346.21-30.25 343.96-30.25L343.96-30.25Q339.51-30.25 339.51-26.45L339.51-26.45 339.51-23.5 336.01-23.5 336.01-26.25Q336.01-29.6 337.99-31.43 339.96-33.25 343.96-33.25 347.96-33.25 349.99-31.43 352.01-29.6 352.01-26.25L352.01-26.25ZM348.51-7.1L348.51-15.25 342.71-15.25Q340.61-15.25 339.81-14.2 339.01-13.15 339.01-11.25L339.01-11.25 339.01-6.25Q339.01-4.35 339.81-3.3 340.61-2.25 342.71-2.25 344.81-2.25 346.61-3.88 348.41-5.5 348.51-7.1L348.51-7.1ZM378.46-32.5L371.11 0 365.86 0 358.51-32.5 362.01-32.5 368.46-3.85 374.96-32.5 378.46-32.5ZM400.96-26.25L400.96 0 399.46 0 398.16-3.2Q397.11-1.4 395.41-0.33 393.71 0.75 391.66 0.75L391.66 0.75Q384.46 0.75 384.46-6.25L384.46-6.25 384.46-11.25Q384.46-18.25 391.66-18.25L391.66-18.25 397.46-18.25 397.46-26.45Q397.46-28.25 396.31-29.25 395.16-30.25 392.91-30.25L392.91-30.25Q388.46-30.25 388.46-26.45L388.46-26.45 388.46-23.5 384.96-23.5 384.96-26.25Q384.96-29.6 386.93-31.43 388.91-33.25 392.91-33.25 396.91-33.25 398.93-31.43 400.96-29.6 400.96-26.25L400.96-26.25ZM397.46-7.1L397.46-15.25 391.66-15.25Q389.56-15.25 388.76-14.2 387.96-13.15 387.96-11.25L387.96-11.25 387.96-6.25Q387.96-4.35 388.76-3.3 389.56-2.25 391.66-2.25 393.76-2.25 395.56-3.88 397.36-5.5 397.46-7.1L397.46-7.1Z" opacity="1" transform="matrix(1,0,0,1,0,0)" fill="#ffffff" class="undefined-text-0" data-fill-palette-color="primary" id="text-0"></path></svg></g></svg></g></svg></g></svg></g><g></g></svg></g></svg></g></svg></g><g mask="url(&quot;#f2b4079d-9878-4d3c-9c60-c5e74bcdd428&quot;)"><g transform="matrix(2.3374640476632744, 0, 0, 2.3374640476632744, 102.03840228419251, 1)"><svg xmlns="http://www.w3.org/2000/svg" xmlns:xlink="http://www.w3.org/1999/xlink" version="1.1" x="0" y="0" viewBox="34 19.500001907348633 81.90209197998047 104.90000915527344" style="enable-background:new 0 0 150 150;" xml:space="preserve" height="104.90000915527344" width="81.90209197998047" class="icon-none" data-fill-palette-color="accent" id="none"><g fill="#ff4136" data-fill-palette-color="accent"><path d="M53.1 57c1.6 0 2.9-1.3 2.9-2.9v-8c0-1.6-1.3-2.9-2.9-2.9-1.6 0-2.9 1.3-2.9 2.9v8C50.1 55.6 51.5 57 53.1 57zM52.1 46.1c0-0.5 0.4-0.9 0.9-0.9 0.5 0 0.9 0.4 0.9 0.9v8c0 0.5-0.4 0.9-0.9 0.9-0.5 0-0.9-0.4-0.9-0.9V46.1z" fill="#ff4136" data-fill-palette-color="accent"></path><path d="M96.7 57c1.6 0 2.9-1.3 2.9-2.9v-8c0-1.6-1.3-2.9-2.9-2.9-1.6 0-2.9 1.3-2.9 2.9v8C93.7 55.6 95 57 96.7 57zM95.7 46.1c0-0.5 0.4-0.9 0.9-0.9 0.5 0 0.9 0.4 0.9 0.9v8c0 0.5-0.4 0.9-0.9 0.9-0.5 0-0.9-0.4-0.9-0.9V46.1z" fill="#ff4136" data-fill-palette-color="accent"></path><path d="M67.3 78.9h-16c-0.6 0-1 0.4-1 1v16c0 0.6 0.4 1 1 1h16c0.6 0 1-0.4 1-1v-16C68.3 79.3 67.9 78.9 67.3 78.9zM66.3 94.8h-14v-14h14V94.8z" fill="#ff4136" data-fill-palette-color="accent"></path><path d="M54.1 75.2c1.8 0 3.3-1.5 3.3-3.3 0-1.8-1.5-3.3-3.3-3.3-1.8 0-3.3 1.5-3.3 3.3C50.7 73.7 52.2 75.2 54.1 75.2zM54.1 70.5c0.7 0 1.3 0.6 1.3 1.3 0 0.7-0.6 1.3-1.3 1.3-0.7 0-1.3-0.6-1.3-1.3C52.7 71.1 53.3 70.5 54.1 70.5z" fill="#ff4136" data-fill-palette-color="accent"></path><path d="M64.5 75.2c1.8 0 3.3-1.5 3.3-3.3 0-1.8-1.5-3.3-3.3-3.3-1.8 0-3.3 1.5-3.3 3.3C61.2 73.7 62.7 75.2 64.5 75.2zM64.5 70.5c0.7 0 1.3 0.6 1.3 1.3 0 0.7-0.6 1.3-1.3 1.3s-1.3-0.6-1.3-1.3C63.2 71.1 63.8 70.5 64.5 70.5z" fill="#ff4136" data-fill-palette-color="accent"></path><path d="M69 48.9c0-1.2-1-2.1-2.1-2.1-1.2 0-2.1 1-2.1 2.1 0 1.2 1 2.1 2.1 2.1C68.1 51 69 50.1 69 48.9zM66.7 48.9c0-0.1 0.1-0.1 0.1-0.1 0.1 0 0.1 0.1 0.1 0.1C67 49.1 66.7 49.1 66.7 48.9z" fill="#ff4136" data-fill-palette-color="accent"></path><path d="M82.8 46.8c-1.2 0-2.1 1-2.1 2.1 0 1.2 1 2.1 2.1 2.1s2.1-1 2.1-2.1C85 47.7 84 46.8 82.8 46.8zM82.7 48.9c0-0.1 0.1-0.1 0.1-0.1 0.1 0 0.1 0.1 0.1 0.1C83 49.1 82.7 49.1 82.7 48.9z" fill="#ff4136" data-fill-palette-color="accent"></path><path d="M82.8 54.1h-16c-0.6 0-1 0.4-1 1s0.4 1 1 1h16c0.6 0 1-0.4 1-1S83.4 54.1 82.8 54.1z" fill="#ff4136" data-fill-palette-color="accent"></path><path d="M94.3 70.9H79.4c-3 0-5.4 2.4-5.4 5.4v15.1c0 3 2.4 5.4 5.4 5.4h11.2c0 0 0.1 0 0.1 0s0.1 0 0.1 0h3.3c3 0 5.4-2.4 5.4-5.4V76.3C99.7 73.3 97.3 70.9 94.3 70.9zM97.7 76.3v2.6h-5.9v-6h2.5C96.2 72.9 97.7 74.4 97.7 76.3zM83.9 86.9v-6h5.9v6H83.9zM89.8 88.9v6h-5.9v-6H89.8zM81.9 86.9H76v-6h5.9V86.9zM83.9 78.9v-6h5.9v6H83.9zM91.8 80.9h5.9v6h-5.9V80.9zM79.4 72.9h2.5v6H76v-2.6C76 74.4 77.5 72.9 79.4 72.9zM76 91.4v-2.5h5.9v6h-2.5C77.5 94.8 76 93.3 76 91.4zM94.3 94.8h-2.5v-6h5.9v2.5C97.7 93.3 96.2 94.8 94.3 94.8z" fill="#ff4136" data-fill-palette-color="accent"></path><path d="M55.1 85.4h8.4c0.6 0 1-0.4 1-1s-0.4-1-1-1h-8.4c-0.6 0-1 0.4-1 1S54.5 85.4 55.1 85.4z" fill="#ff4136" data-fill-palette-color="accent"></path><path d="M55.1 88.9h8.4c0.6 0 1-0.4 1-1s-0.4-1-1-1h-8.4c-0.6 0-1 0.4-1 1S54.5 88.9 55.1 88.9z" fill="#ff4136" data-fill-palette-color="accent"></path><path d="M108.1 68.6v-0.2c0-3-2.4-5.4-5.4-5.4H91.8V41.3c0-0.6-0.4-1-1-1H75.9c0-0.1 0.1-0.2 0.1-0.3v-3.2c0.7-0.4 1.1-1.1 1.1-1.9 0-1.2-1-2.1-2.1-2.1-1.2 0-2.1 1-2.1 2.1 0 0.8 0.5 1.5 1.1 1.9V40c0 0.1 0 0.2 0.1 0.3H58.9c-0.6 0-1 0.4-1 1v21.6H47.4c-3 0-5.4 2.4-5.4 5.4v0.2c-4.5 0.5-8 4.3-8 8.9v16c0 0.6 0.4 1 1 1h7v4.9c0 3 2.4 5.4 5.4 5.4H50v17.7h-7.3c-0.6 0-1 0.4-1 1s0.4 1 1 1H51h16c0.6 0 1-0.4 1-1v-18.7h13.6v18.7c0 0.6 0.4 1 1 1h16 8.3c0.6 0 1-0.4 1-1s-0.4-1-1-1h-7.3v-17.7h2.9c3 0 5.4-2.4 5.4-5.4v-4.9h7c0.6 0 1-0.4 1-1v-16C116 72.9 112.5 69.1 108.1 68.6zM59.9 42.3h29.9v20.6H59.9V42.3zM36 92.5v-15c0-3.5 2.6-6.4 6-6.9v21.9H36zM66.1 122.5H52v-17.7h14V122.5zM97.7 122.5h-14v-17.7h14V122.5zM106.1 99.4c0 1.9-1.5 3.4-3.4 3.4h-3.9-16H67.1 51h-3.7c-1.9 0-3.4-1.5-3.4-3.4v-5.9-24-1.2c0-1.9 1.5-3.4 3.4-3.4h11.5 31.9 11.8c1.9 0 3.4 1.5 3.4 3.4v1.2 24V99.4zM114 92.5h-6V70.6c3.4 0.5 6 3.4 6 6.9V92.5z" fill="#ff4136" data-fill-palette-color="accent"></path><path d="M74.9 28.6c-1.9 0-3.6 1.1-4.4 2.8-0.2 0.5 0 1.1 0.5 1.3s1.1 0 1.3-0.5c0.5-1 1.5-1.7 2.6-1.7 1.1 0 2.1 0.6 2.6 1.7 0.2 0.4 0.5 0.6 0.9 0.6 0.1 0 0.3 0 0.4-0.1 0.5-0.2 0.7-0.8 0.5-1.3C78.5 29.7 76.7 28.6 74.9 28.6z" fill="#ff4136" data-fill-palette-color="accent"></path><path d="M80.5 29.6c0.2 0.5 0.8 0.7 1.3 0.5 0.5-0.2 0.7-0.8 0.5-1.3-1.4-2.8-4.3-4.7-7.4-4.7-3.1 0-6.1 1.8-7.4 4.7-0.2 0.5 0 1.1 0.5 1.3 0.1 0.1 0.3 0.1 0.4 0.1 0.4 0 0.7-0.2 0.9-0.6 1-2.2 3.2-3.5 5.6-3.5C77.2 26.1 79.4 27.5 80.5 29.6z" fill="#ff4136" data-fill-palette-color="accent"></path><path d="M65.3 27.2c0.1 0.1 0.3 0.1 0.4 0.1 0.4 0 0.7-0.2 0.9-0.6 1.5-3.2 4.7-5.2 8.2-5.2 3.5 0 6.7 2.1 8.2 5.2 0.2 0.5 0.8 0.7 1.3 0.5 0.5-0.2 0.7-0.8 0.5-1.3-1.8-3.9-5.8-6.4-10-6.4-4.3 0-8.2 2.5-10 6.4C64.6 26.4 64.8 27 65.3 27.2z" fill="#ff4136" data-fill-palette-color="accent"></path></g></svg></g></g><mask id="f2b4079d-9878-4d3c-9c60-c5e74bcdd428"><rect width="640" height="400" fill="white"></rect><g transform="matrix(1,0,0,1,39.55199999999999,107.62333004926109)"><svg viewBox="0 0 316.416 31.953339901477833" height="31.953339901477833" width="316.416"><g><svg viewBox="0 0 316.416 31.953339901477833" height="31.953339901477833" width="316.416"><g><svg viewBox="0 0 316.416 31.953339901477833" height="31.953339901477833" width="316.416"><g><svg viewBox="0 0 316.416 31.953339901477833" height="31.953339901477833" width="316.416"><g id="SvgjsG1110"><svg viewBox="0 0 316.416 31.953339901477833" height="31.953339901477833" width="316.416" id="SvgjsSvg1109"><g><svg viewBox="0 0 316.416 31.953339901477833" height="31.953339901477833" width="316.416"><g transform="matrix(1,0,0,1,0,0)"><svg width="316.416" viewBox="-2 -37.25 406.9599914550781 42" height="31.953339901477833" data-palette-color="#ffffff"><path d="M2 0L9.35-32.5 14.6-32.5 21.95 0 18.45 0 16.75-7.5 7.2-7.5 5.5 0 2 0ZM16.05-10.5L11.95-28.6 7.85-10.5 16.05-10.5ZM32.5-12.5L32.5 0 29 0 29-32.5 32.5-32.5 32.5-18.7 41.2-32.5 45.1-32.5 36.25-18.5 45.7 0 41.85 0 34.15-15.15 32.5-12.5ZM67.6-6.25L67.6-6.25Q67.6 0.75 59.15 0.75 50.7 0.75 50.7-6.25L50.7-6.25 50.7-10.5 54.2-10.5 54.2-6.05Q54.2-4.25 55.45-3.25 56.7-2.25 59.15-2.25 61.6-2.25 62.85-3.25 64.1-4.25 64.1-5.98 64.1-7.7 63.72-8.72 63.35-9.75 62.2-10.9L62.2-10.9 53.4-19.5Q51.85-21.05 51.27-22.53 50.7-24 50.7-26.25L50.7-26.25Q50.7-29.6 52.77-31.43 54.85-33.25 59.05-33.25L59.05-33.25Q67.1-33.25 67.1-26.25L67.1-26.25 67.1-22 63.6-22 63.6-26.45Q63.6-28.25 62.42-29.25 61.25-30.25 58.9-30.25 56.55-30.25 55.37-29.25 54.2-28.25 54.2-26.5 54.2-24.75 54.55-23.75 54.9-22.75 56.1-21.65L56.1-21.65 65.05-13.05Q66.5-11.45 67.05-9.98 67.6-8.5 67.6-6.25ZM80.09-15L80.09 0 76.59 0 76.59-32.5 80.09-32.5 80.09-18 89.94-18 89.94-32.5 93.44-32.5 93.44 0 89.94 0 89.94-15 80.09-15ZM118.94-26.25L118.94 0 117.44 0 116.14-3.2Q115.09-1.4 113.39-0.33 111.69 0.75 109.64 0.75L109.64 0.75Q102.44 0.75 102.44-6.25L102.44-6.25 102.44-11.25Q102.44-18.25 109.64-18.25L109.64-18.25 115.44-18.25 115.44-26.45Q115.44-28.25 114.29-29.25 113.14-30.25 110.89-30.25L110.89-30.25Q106.44-30.25 106.44-26.45L106.44-26.45 106.44-23.5 102.94-23.5 102.94-26.25Q102.94-29.6 104.92-31.43 106.89-33.25 110.89-33.25 114.89-33.25 116.92-31.43 118.94-29.6 118.94-26.25L118.94-26.25ZM115.44-7.1L115.44-15.25 109.64-15.25Q107.54-15.25 106.74-14.2 105.94-13.15 105.94-11.25L105.94-11.25 105.94-6.25Q105.94-4.35 106.74-3.3 107.54-2.25 109.64-2.25 111.74-2.25 113.54-3.88 115.34-5.5 115.44-7.1L115.44-7.1ZM127.69-5.75L127.69-32.5 138.69-32.5 138.69-29.5 131.19-29.5 131.19-5.55Q131.19-4.15 131.91-3.2 132.64-2.25 133.96-2.25 135.29-2.25 135.99-3.18 136.69-4.1 136.69-5.55L136.69-5.55 136.69-11.5 140.19-11.5 140.19-5.75Q140.19-2.6 138.51-0.93 136.84 0.75 133.99 0.75 131.14 0.75 129.41-0.93 127.69-2.6 127.69-5.75L127.69-5.75ZM174.58-6.25L174.58-6.25Q174.58 0.75 166.13 0.75 157.68 0.75 157.68-6.25L157.68-6.25 157.68-10.5 161.18-10.5 161.18-6.05Q161.18-4.25 162.43-3.25 163.68-2.25 166.13-2.25 168.58-2.25 169.83-3.25 171.08-4.25 171.08-5.98 171.08-7.7 170.71-8.72 170.33-9.75 169.18-10.9L169.18-10.9 160.38-19.5Q158.83-21.05 158.26-22.53 157.68-24 157.68-26.25L157.68-26.25Q157.68-29.6 159.76-31.43 161.83-33.25 166.03-33.25L166.03-33.25Q174.08-33.25 174.08-26.25L174.08-26.25 174.08-22 170.58-22 170.58-26.45Q170.58-28.25 169.41-29.25 168.23-30.25 165.88-30.25 163.53-30.25 162.36-29.25 161.18-28.25 161.18-26.5 161.18-24.75 161.53-23.75 161.88-22.75 163.08-21.65L163.08-21.65 172.03-13.05Q173.48-11.45 174.03-9.98 174.58-8.5 174.58-6.25ZM187.08-15L187.08 0 183.58 0 183.58-32.5 187.08-32.5 187.08-18 196.93-18 196.93-32.5 200.43-32.5 200.43 0 196.93 0 196.93-15 187.08-15ZM213.93-22.85L213.93 0 210.43 0 210.43-32.5 211.93-32.5 213.38-28.8Q214.98-33.25 218.48-33.25L218.48-33.25Q224.43-33.25 224.43-26.75L224.43-26.75 224.43-23.5 221.08-23.5 221.08-26.95Q221.08-30.25 218.33-30.25L218.33-30.25Q216.68-30.25 215.3-28.35 213.93-26.45 213.93-22.85L213.93-22.85ZM233.93-32.5L233.93 0 230.43 0 230.43-32.5 233.93-32.5ZM260.87-32.5L253.52 0 248.27 0 240.92-32.5 244.42-32.5 250.87-3.85 257.37-32.5 260.87-32.5ZM283.37-26.25L283.37 0 281.87 0 280.57-3.2Q279.52-1.4 277.82-0.33 276.12 0.75 274.07 0.75L274.07 0.75Q266.87 0.75 266.87-6.25L266.87-6.25 266.87-11.25Q266.87-18.25 274.07-18.25L274.07-18.25 279.87-18.25 279.87-26.45Q279.87-28.25 278.72-29.25 277.57-30.25 275.32-30.25L275.32-30.25Q270.87-30.25 270.87-26.45L270.87-26.45 270.87-23.5 267.37-23.5 267.37-26.25Q267.37-29.6 269.35-31.43 271.32-33.25 275.32-33.25 279.32-33.25 281.35-31.43 283.37-29.6 283.37-26.25L283.37-26.25ZM279.87-7.1L279.87-15.25 274.07-15.25Q271.97-15.25 271.17-14.2 270.37-13.15 270.37-11.25L270.37-11.25 270.37-6.25Q270.37-4.35 271.17-3.3 271.97-2.25 274.07-2.25 276.17-2.25 277.97-3.88 279.77-5.5 279.87-7.1L279.87-7.1ZM308.77-6.25L308.77-6.25Q308.77 0.75 300.32 0.75 291.87 0.75 291.87-6.25L291.87-6.25 291.87-10.5 295.37-10.5 295.37-6.05Q295.37-4.25 296.62-3.25 297.87-2.25 300.32-2.25 302.77-2.25 304.02-3.25 305.27-4.25 305.27-5.98 305.27-7.7 304.89-8.72 304.52-9.75 303.37-10.9L303.37-10.9 294.57-19.5Q293.02-21.05 292.44-22.53 291.87-24 291.87-26.25L291.87-26.25Q291.87-29.6 293.94-31.43 296.02-33.25 300.22-33.25L300.22-33.25Q308.27-33.25 308.27-26.25L308.27-26.25 308.27-22 304.77-22 304.77-26.45Q304.77-28.25 303.59-29.25 302.42-30.25 300.07-30.25 297.72-30.25 296.54-29.25 295.37-28.25 295.37-26.5 295.37-24.75 295.72-23.75 296.07-22.75 297.27-21.65L297.27-21.65 306.22-13.05Q307.67-11.45 308.22-9.98 308.77-8.5 308.77-6.25ZM317.02-5.75L317.02-32.5 328.02-32.5 328.02-29.5 320.52-29.5 320.52-5.55Q320.52-4.15 321.24-3.2 321.97-2.25 323.29-2.25 324.62-2.25 325.32-3.18 326.02-4.1 326.02-5.55L326.02-5.55 326.02-11.5 329.52-11.5 329.52-5.75Q329.52-2.6 327.84-0.93 326.17 0.75 323.32 0.75 320.47 0.75 318.74-0.93 317.02-2.6 317.02-5.75L317.02-5.75ZM352.01-26.25L352.01 0 350.51 0 349.21-3.2Q348.16-1.4 346.46-0.33 344.76 0.75 342.71 0.75L342.71 0.75Q335.51 0.75 335.51-6.25L335.51-6.25 335.51-11.25Q335.51-18.25 342.71-18.25L342.71-18.25 348.51-18.25 348.51-26.45Q348.51-28.25 347.36-29.25 346.21-30.25 343.96-30.25L343.96-30.25Q339.51-30.25 339.51-26.45L339.51-26.45 339.51-23.5 336.01-23.5 336.01-26.25Q336.01-29.6 337.99-31.43 339.96-33.25 343.96-33.25 347.96-33.25 349.99-31.43 352.01-29.6 352.01-26.25L352.01-26.25ZM348.51-7.1L348.51-15.25 342.71-15.25Q340.61-15.25 339.81-14.2 339.01-13.15 339.01-11.25L339.01-11.25 339.01-6.25Q339.01-4.35 339.81-3.3 340.61-2.25 342.71-2.25 344.81-2.25 346.61-3.88 348.41-5.5 348.51-7.1L348.51-7.1ZM378.46-32.5L371.11 0 365.86 0 358.51-32.5 362.01-32.5 368.46-3.85 374.96-32.5 378.46-32.5ZM400.96-26.25L400.96 0 399.46 0 398.16-3.2Q397.11-1.4 395.41-0.33 393.71 0.75 391.66 0.75L391.66 0.75Q384.46 0.75 384.46-6.25L384.46-6.25 384.46-11.25Q384.46-18.25 391.66-18.25L391.66-18.25 397.46-18.25 397.46-26.45Q397.46-28.25 396.31-29.25 395.16-30.25 392.91-30.25L392.91-30.25Q388.46-30.25 388.46-26.45L388.46-26.45 388.46-23.5 384.96-23.5 384.96-26.25Q384.96-29.6 386.93-31.43 388.91-33.25 392.91-33.25 396.91-33.25 398.93-31.43 400.96-29.6 400.96-26.25L400.96-26.25ZM397.46-7.1L397.46-15.25 391.66-15.25Q389.56-15.25 388.76-14.2 387.96-13.15 387.96-11.25L387.96-11.25 387.96-6.25Q387.96-4.35 388.76-3.3 389.56-2.25 391.66-2.25 393.76-2.25 395.56-3.88 397.36-5.5 397.46-7.1L397.46-7.1Z" opacity="1" transform="matrix(1,0,0,1,0,0)" fill="#ffffff" class="undefined-text-0" data-fill-palette-color="primary" id="SvgjsPath1108" stroke-width="7" stroke="black" stroke-linejoin="round"></path></svg></g></svg></g></svg></g></svg></g><g></g></svg></g></svg></g></svg></g></mask></svg></g><defs></defs></svg><rect width="395.52" height="247.2" fill="none" stroke="none" visibility="hidden"></rect></g></svg></g></svg>